<svg width="224" height="28" viewBox="0 0 224 28" fill="none" xmlns="http://www.w3.org/2000/svg">
<g clip-path="url(#clip0_6467_11115)">
<path d="M6.13274 6.98689V21.7413C6.13274 23.0793 6.13274 24.4098 6.16885 25.7105H14.7576L17.0185 20.9014L17.8059 20.775L17.423 27.2715L17.3147 27.3978C14.2736 27.3978 11.4564 27.3458 8.87043 27.3458H4.44244C2.99775 27.3458 1.55304 27.3458 0.0650086 27.3978L0 26.6174L2.16704 25.9484C2.29736 25.9246 2.4158 25.8556 2.50258 25.7528C2.58936 25.6499 2.63921 25.5196 2.64379 25.3835C2.64379 24.9003 2.64379 24.3577 2.64379 23.7631C2.64379 23.1685 2.64379 22.4995 2.64379 21.7785V7.09838C2.64379 6.48144 2.64379 5.92397 2.64379 5.42596C2.64379 4.92795 2.64379 4.48197 2.64379 4.08059C2.64821 3.94393 2.6089 3.80956 2.53191 3.6981C2.45492 3.58665 2.3445 3.50427 2.21761 3.46364L0.0505696 2.75753L0.01445 1.97705C1.53138 2.02908 2.9833 2.05139 4.38466 2.05139C5.78601 2.05139 7.27404 2.05138 8.76208 1.97705L8.82709 2.75753L6.66005 3.42649C6.53119 3.45067 6.41455 3.52031 6.33018 3.62341C6.2458 3.7265 6.19898 3.85663 6.19774 3.9914C6.19774 4.41508 6.19774 5.03201 6.19774 5.8422C6.19774 6.6524 6.13274 7.00919 6.13274 6.98689Z" fill="white"/>
<path d="M35.7417 18.6193C35.7948 19.845 35.6073 21.0691 35.1903 22.2185C34.7733 23.3679 34.1353 24.419 33.3146 25.309C32.5145 26.1511 31.5528 26.8126 30.4908 27.2515C29.4288 27.6904 28.2896 27.8972 27.1458 27.8585C26.0535 27.9062 24.9637 27.7171 23.947 27.3035C22.9303 26.8899 22.0095 26.261 21.2442 25.4577C20.4826 24.6153 19.8913 23.6256 19.5044 22.5461C19.1175 21.4667 18.9428 20.3189 18.9905 19.1694C18.9455 17.9755 19.1303 16.7843 19.5345 15.6643C19.9386 14.5443 20.554 13.5176 21.3453 12.6432C22.1556 11.7957 23.1299 11.1329 24.205 10.6975C25.2801 10.2621 26.4321 10.064 27.5864 10.116C28.6753 10.0667 29.7625 10.2485 30.7803 10.65C31.798 11.0515 32.7246 11.6642 33.5024 12.45C34.2607 13.2698 34.8499 14.239 35.2348 15.2992C35.6196 16.3594 35.792 17.4888 35.7417 18.6193V18.6193ZM22.6094 18.7829C22.5278 20.704 22.9521 22.6121 23.8374 24.3056C24.1933 24.976 24.7239 25.531 25.3697 25.9078C26.0155 26.2847 26.7507 26.4686 27.4925 26.4388C28.1785 26.4693 28.86 26.3111 29.4668 25.9806C30.0737 25.65 30.584 25.1591 30.9453 24.5583C31.7327 23.3095 32.13 21.4513 32.13 18.9984C32.2269 17.0921 31.7934 15.1969 30.8803 13.5352C30.5058 12.9018 29.9733 12.383 29.3382 12.0327C28.7032 11.6824 27.9886 11.5134 27.2686 11.5432C26.592 11.5116 25.9189 11.6598 25.3142 11.9735C24.7094 12.2873 24.1934 12.756 23.8158 13.3345C22.9923 14.5312 22.6094 16.3523 22.6094 18.7829V18.7829Z" fill="white"/>
<path d="M53.8221 18.6193C53.8752 19.845 53.6877 21.0691 53.2707 22.2185C52.8537 23.3679 52.2157 24.419 51.395 25.309C50.5944 26.1503 49.6326 26.8114 48.5707 27.2502C47.5088 27.6891 46.3699 27.8962 45.2262 27.8585C44.1329 27.9054 43.0422 27.7159 42.0245 27.3024C41.0068 26.8889 40.0846 26.2605 39.3174 25.4577C38.5581 24.614 37.9687 23.6239 37.5831 22.5447C37.1976 21.4654 37.0235 20.3182 37.0709 19.1694C37.0242 17.9754 37.2084 16.7837 37.6126 15.6634C38.0169 14.5432 38.6331 13.5166 39.4257 12.6432C40.236 11.7957 41.2103 11.1329 42.2854 10.6975C43.3605 10.2621 44.5125 10.064 45.6668 10.116C46.7557 10.0667 47.8429 10.2485 48.8607 10.65C49.8784 11.0515 50.805 11.6642 51.5828 12.45C52.3411 13.2698 52.9303 14.239 53.3152 15.2992C53.7 16.3594 53.8724 17.4888 53.8221 18.6193ZM40.6826 18.7829C40.6032 20.7047 41.03 22.6128 41.9178 24.3056C42.2731 24.9749 42.8026 25.529 43.447 25.9059C44.0914 26.2827 44.825 26.4672 45.5657 26.4388C46.2519 26.4708 46.9339 26.3133 47.5411 25.9827C48.1482 25.652 48.6583 25.1602 49.0185 24.5583C49.8131 23.3095 50.2104 21.4513 50.2104 18.9984C50.3073 17.0921 49.8738 15.1969 48.9607 13.5352C48.5862 12.9018 48.0537 12.383 47.4186 12.0327C46.7836 11.6824 46.069 11.5134 45.349 11.5432C44.6723 11.5108 43.999 11.6587 43.3941 11.9725C42.7892 12.2864 42.2733 12.7555 41.8961 13.3345C41.0871 14.5312 40.6826 16.3523 40.6826 18.7829Z" fill="white"/>
<path d="M69.5548 13.6467C69.7273 14.2854 69.81 14.9462 69.8004 15.609V22.0831C69.8004 23.5028 69.8004 24.6401 69.8365 25.4949C69.8379 25.638 69.8834 25.7771 69.9665 25.892C70.0496 26.0068 70.1659 26.0916 70.2988 26.1341L72.0758 26.6544L72.1119 27.3977C70.6672 27.3977 69.3814 27.3457 68.2257 27.3457C67.0699 27.3457 65.7841 27.3457 64.3683 27.3977L64.3033 26.6544L65.9792 26.149C66.3187 26.03 66.492 25.8368 66.5065 25.5692C66.5209 25.3016 66.5065 25.0191 66.5065 24.4245V16.5158C66.5065 15.0292 66.1814 13.9589 65.5241 13.3122C64.7192 12.6161 63.6839 12.2672 62.6347 12.3385C61.4011 12.3643 60.1966 12.7287 59.1458 13.394V21.325C59.1458 22.8116 59.1458 24.2164 59.1819 25.48C59.1819 25.8368 59.3191 26.0449 59.5575 26.0969L61.4212 26.6544L61.4573 27.3977C60.0126 27.3977 58.6907 27.3457 57.5349 27.3457C56.3792 27.3457 55.0067 27.3457 53.432 27.3977L53.367 26.6544L55.3896 26.0375C55.5178 26.0149 55.6343 25.9467 55.7188 25.8448C55.8033 25.743 55.8503 25.6139 55.8519 25.48C55.8519 24.8333 55.8519 24.09 55.8519 23.2501V17.0584C55.8519 15.4777 55.8302 14.0084 55.7868 12.6507L53.4392 11.9966L53.3525 11.3796C55.2884 10.9931 57.1521 10.5694 58.9291 10.1086L59.1024 10.235V12.3385C61.0311 10.8519 62.8659 10.1086 64.5923 10.1086C65.5109 10.0408 66.4295 10.2414 67.2423 10.6872C68.055 11.1329 68.7289 11.8058 69.1864 12.6284C70.8291 11.0379 72.9915 10.1388 75.2469 10.1086C75.9472 10.0679 76.6483 10.1727 77.3085 10.4166C77.9687 10.6605 78.5745 11.0386 79.0898 11.5283C79.5748 12.0779 79.9471 12.7226 80.1841 13.4238C80.4212 14.125 80.5183 14.8683 80.4695 15.609V22.0311C80.4695 23.5548 80.4695 24.6772 80.5056 25.4057C80.5083 25.5498 80.5562 25.6891 80.6421 25.803C80.728 25.9168 80.8473 25.9991 80.9823 26.0375L82.9399 26.6544L82.976 27.3977C81.423 27.3977 80.0866 27.3457 78.902 27.3457C77.7173 27.3457 76.4388 27.3457 75.0446 27.3977L74.9724 26.6544L76.7133 26.1341C76.8366 26.0988 76.9468 26.026 77.0293 25.9252C77.1118 25.8244 77.1628 25.7003 77.1756 25.5692C77.1756 25.3982 77.1756 25.0191 77.1756 24.4245V16.5158C77.1756 15.0292 76.8433 13.9589 76.1787 13.3122C75.3502 12.6074 74.2893 12.2586 73.2171 12.3385C71.89 12.3496 70.6032 12.8093 69.5548 13.6467V13.6467Z" fill="white"/>
<path d="M83.9151 11.3798C85.9762 10.9784 87.8856 10.5547 89.6433 10.1087L89.8022 10.2351C89.73 11.8109 89.6939 13.5353 89.6939 15.4382V22.4103C89.6939 23.8597 89.6939 24.8632 89.73 25.4206C89.7303 25.5601 89.7729 25.6959 89.8519 25.8092C89.9309 25.9225 90.0423 26.0075 90.1706 26.0524L92.2221 26.6694V27.4127C90.604 27.4127 89.2099 27.3607 88.0541 27.3607C86.8984 27.3607 85.5259 27.3606 83.9367 27.4127L83.8645 26.6694L85.9088 26.0524C86.0301 26.0195 86.1382 25.9478 86.2174 25.8476C86.2966 25.7474 86.3428 25.6239 86.3494 25.495C86.3494 25.0193 86.3855 24.2314 86.3855 23.1164V17.0511C86.3855 15.4679 86.3855 14.0036 86.3205 12.6657L83.9729 12.0115L83.9151 11.3798ZM89.8744 5.91653C89.8847 6.20504 89.8382 6.49271 89.7377 6.76224C89.6371 7.03177 89.4846 7.27756 89.2893 7.48487C89.0941 7.68665 88.8606 7.84491 88.6034 7.94977C88.3461 8.05463 88.0706 8.10385 87.7941 8.09438C87.5284 8.10942 87.2627 8.06667 87.0142 7.9689C86.7657 7.87112 86.54 7.72051 86.3518 7.52693C86.1637 7.33334 86.0174 7.10114 85.9224 6.84542C85.8273 6.58971 85.7858 6.31623 85.8004 6.04287C85.7864 5.75681 85.8306 5.47092 85.9301 5.20342C86.0296 4.93593 86.1822 4.69272 86.3783 4.48939C86.7988 4.09907 87.351 3.89364 87.9169 3.91706C88.4346 3.8933 88.9406 4.08022 89.3254 4.43737C89.516 4.62802 89.6638 4.85913 89.7586 5.11459C89.8534 5.37006 89.893 5.64373 89.8744 5.91653V5.91653Z" fill="white"/>
<path d="M101.728 11.9372C101.003 11.7379 100.254 11.6404 99.5034 11.6473C98.572 11.6034 97.6476 11.8328 96.838 12.3088C96.5266 12.4885 96.2678 12.7509 96.0887 13.0686C95.9095 13.3863 95.8165 13.7477 95.8194 14.1151C95.8031 14.4381 95.854 14.761 95.9686 15.0622C96.0832 15.3634 96.2589 15.636 96.484 15.8618C97.2146 16.4406 98.0493 16.865 98.94 17.1105L100.385 17.6234C101.692 18.0118 102.907 18.6749 103.953 19.5709C104.332 19.9379 104.63 20.385 104.826 20.8815C105.022 21.378 105.111 21.9122 105.087 22.4474C105.116 23.2183 104.957 23.9842 104.625 24.676C104.293 25.3678 103.799 25.9635 103.187 26.4092C101.777 27.4167 100.085 27.923 98.3693 27.8512C96.4897 27.8333 94.6299 27.4526 92.8867 26.7288C93.284 25.153 93.6091 23.6218 93.8547 22.1204L94.5409 22.0089L95.8122 25.9112C96.6338 26.2036 97.5004 26.3397 98.3693 26.3126C99.2912 26.3602 100.205 26.1192 100.991 25.6213C101.302 25.4112 101.555 25.1223 101.726 24.7826C101.896 24.4428 101.979 24.0636 101.967 23.6813C101.984 23.3454 101.935 23.0093 101.822 22.6936C101.709 22.378 101.534 22.0893 101.309 21.8453C100.698 21.3036 99.9776 20.9077 99.2 20.6858L97.3653 20.054C96.1163 19.7165 94.9801 19.0356 94.0786 18.0843C93.4576 17.2702 93.1353 16.2569 93.1684 15.2226C93.1479 14.5033 93.2969 13.7897 93.6025 13.1425C93.9082 12.4954 94.3615 11.9339 94.9237 11.5061C96.2773 10.5349 97.9059 10.0539 99.554 10.1384C101.209 10.1179 102.855 10.3868 104.423 10.9337C104.09 12.3163 103.794 13.7731 103.52 15.3118L102.848 15.4381L101.728 11.9372Z" fill="white"/>
<path d="M133.295 8.27307L132.572 8.38458L131.287 3.6126C129.992 3.25759 128.66 3.06786 127.321 3.04769C126.032 2.98584 124.747 3.23452 123.568 3.77393C122.39 4.31334 121.349 5.12858 120.531 6.15469C118.884 8.22106 118.06 10.9068 118.06 14.212C118.06 17.7452 119.002 20.5623 120.885 22.6633C122.768 24.7644 125.371 25.8174 128.693 25.8223C130.709 25.7951 132.707 25.4208 134.602 24.7148L134.797 25.5324C132.487 27.1736 129.738 28.0359 126.931 28.0002C123.131 28.0002 120.061 26.8084 117.721 24.4249C115.381 22.0414 114.208 18.9022 114.203 15.0074C114.203 10.8598 115.491 7.57438 118.068 5.15123C120.644 2.72809 124.015 1.51899 128.181 1.52394C130.234 1.5309 132.279 1.7803 134.277 2.26724L134.4 2.41591L133.295 8.27307Z" fill="white"/>
<path d="M135.447 1.28589C137.374 0.899375 139.3 0.470755 141.226 0L141.378 0.141228C141.32 1.27847 141.291 2.90628 141.284 5.00982C141.277 7.11335 141.284 9.4696 141.284 12.138C142.96 10.9117 144.943 10.2072 146.998 10.1088C148.425 10.032 149.823 10.5367 150.891 11.5137C151.399 12.0589 151.79 12.7079 152.039 13.4185C152.288 14.1291 152.389 14.8856 152.336 15.639V22.0462C152.336 23.4361 152.336 24.5585 152.372 25.4059C152.366 25.5457 152.405 25.6836 152.484 25.798C152.562 25.9124 152.675 25.9967 152.805 26.0377L154.785 26.6546L154.821 27.3979C153.268 27.3979 151.931 27.3459 150.754 27.3459C149.577 27.3459 148.312 27.3459 146.904 27.3979L146.832 26.6546L148.58 26.1343C148.704 26.1027 148.816 26.0307 148.898 25.929C148.98 25.8274 149.028 25.7013 149.035 25.5694C149.035 25.3985 149.035 25.0194 149.035 24.4247V16.5161C149.035 15.0295 148.688 13.9591 147.995 13.3124C147.128 12.605 146.035 12.2576 144.932 12.3387C143.661 12.3634 142.409 12.6595 141.255 13.2084V21.3847C141.255 22.8712 141.255 24.2612 141.291 25.5099C141.28 25.6519 141.318 25.7932 141.399 25.9089C141.48 26.0245 141.598 26.107 141.732 26.1417L143.567 26.6844L143.603 27.4277C142.122 27.4277 140.8 27.3756 139.644 27.3756C138.488 27.3756 137.116 27.3756 135.541 27.4277L135.469 26.6844L137.463 26.0897C137.594 26.0629 137.713 25.9909 137.8 25.8856C137.886 25.7803 137.936 25.6478 137.939 25.5099C137.939 24.3405 137.952 22.8539 137.976 21.0502V13.4462C137.976 10.9785 137.976 8.7932 137.976 6.8978C137.976 5.00239 137.976 3.56781 137.911 2.60896L135.527 1.86566L135.447 1.28589Z" fill="white"/>
<path d="M156.367 11.6475C158.272 10.7157 160.341 10.1922 162.449 10.1088C164.005 10.018 165.538 10.5357 166.74 11.5583C167.282 12.0967 167.702 12.7515 167.97 13.4761C168.239 14.2007 168.349 14.9772 168.293 15.7505L168.184 23.3024C168.166 23.7983 168.18 24.295 168.228 24.789C168.246 25.1029 168.357 25.4037 168.545 25.6512C168.753 25.8672 169.02 26.0125 169.311 26.0674C169.765 26.161 170.228 26.2058 170.691 26.2012L170.777 26.9445C170.272 27.1452 169.651 27.3533 168.921 27.5615C168.437 27.7169 167.938 27.8191 167.433 27.8662C166.897 27.8845 166.371 27.7151 165.94 27.3857C165.51 27.0562 165.201 26.5862 165.064 26.0526C163.72 27.1524 162.076 27.7918 160.361 27.8811C158.932 27.9562 157.523 27.5174 156.374 26.6398C155.873 26.2177 155.476 25.6801 155.215 25.0705C154.954 24.4609 154.836 23.7966 154.871 23.1314C154.838 22.2765 155.049 21.4303 155.48 20.6982C155.91 19.966 156.54 19.3802 157.291 19.0135C158.909 18.1315 161.447 17.688 164.905 17.683V16.2708C164.953 15.7239 164.887 15.1729 164.713 14.6539C164.539 14.135 164.259 13.66 163.893 13.2604C163.007 12.5356 161.887 12.1848 160.758 12.2793C159.398 12.3224 158.048 12.5295 156.735 12.8962L156.367 11.6475ZM164.919 19.125C162.449 19.125 160.763 19.3852 159.863 19.9055C159.416 20.1656 159.052 20.5514 158.811 21.0175C158.571 21.4836 158.464 22.0107 158.505 22.5368C158.459 22.9875 158.517 23.443 158.674 23.8665C158.831 24.29 159.082 24.6697 159.408 24.9748C160.113 25.5003 160.972 25.7625 161.842 25.7181C162.891 25.7401 163.932 25.5244 164.89 25.0863L164.919 19.125Z" fill="white"/>
<path d="M177.459 12.4501V22.3583C177.459 23.5401 177.459 24.5882 177.495 25.4058C177.494 25.5476 177.538 25.686 177.62 25.7999C177.702 25.9139 177.818 25.9973 177.95 26.0376L180.016 26.6545L180.052 27.3978C178.405 27.3978 177.011 27.3458 175.863 27.3458C174.714 27.3458 173.32 27.3458 171.745 27.3978L171.659 26.6545L173.631 26.0748C173.769 26.0498 173.895 25.9774 173.988 25.8695C174.081 25.7615 174.136 25.6243 174.144 25.4801C174.144 24.7368 174.18 23.9341 174.18 23.1016V12.413L171.782 11.796L171.659 11.0527L174.194 10.8372C174.194 7.50719 174.916 4.90565 176.361 3.03254C177.04 2.12757 177.918 1.40109 178.922 0.912691C179.927 0.424294 181.029 0.187898 182.14 0.222882C183.289 0.216778 184.433 0.369264 185.542 0.676282C185.145 2.16288 184.82 3.64947 184.538 5.2327L183.816 5.35907L182.74 1.76151C182.371 1.71433 181.999 1.69199 181.627 1.69462C180.991 1.67845 180.363 1.84343 179.812 2.17134C179.262 2.49925 178.81 2.97735 178.507 3.55286C177.775 4.79665 177.411 7.07361 177.416 10.3838V10.8149H185.037V10.7777C185.037 7.36846 185.759 4.72478 187.204 2.84672C187.881 1.93993 188.758 1.21214 189.763 0.723555C190.768 0.234972 191.872 -0.000350204 192.982 0.0370576C194.143 0.0343614 195.299 0.186763 196.421 0.490458C196.016 1.97705 195.674 3.49586 195.395 5.04687L194.673 5.1881L193.524 1.56081C193.184 1.52105 192.841 1.50369 192.498 1.50879C191.862 1.49419 191.234 1.66062 190.683 1.9898C190.132 2.31898 189.681 2.79811 189.378 3.37445C188.651 4.62319 188.287 6.90513 188.287 10.2202V10.8149H192.744V12.4873H188.352V22.3954C188.352 23.5327 188.352 24.5287 188.388 25.3686C188.386 25.5091 188.429 25.6465 188.512 25.7585C188.594 25.8704 188.711 25.9505 188.843 25.9856L191.083 26.6694V27.4127C189.32 27.4127 187.868 27.3607 186.749 27.3607C185.629 27.3607 184.264 27.3607 182.805 27.4127L182.732 26.6694L184.516 26.1491C184.655 26.1214 184.78 26.0472 184.873 25.9382C184.966 25.8293 185.021 25.6917 185.029 25.547C185.029 24.8037 185.029 23.9861 185.029 23.1164V12.4501H177.459Z" fill="white"/>
<path d="M208.036 26.0598C207.084 26.6805 206.043 27.1444 204.952 27.4349C203.99 27.7019 203 27.8418 202.004 27.8512C199.709 27.9593 197.463 27.1435 195.742 25.5767C194.148 24.0603 193.351 21.9519 193.351 19.2512C193.254 16.8451 194.049 14.4909 195.576 12.6656C196.327 11.8169 197.25 11.1481 198.279 10.7063C199.309 10.2645 200.42 10.0605 201.535 10.1087C202.432 10.0551 203.329 10.1976 204.168 10.5269C205.007 10.8562 205.769 11.3647 206.404 12.0189C207.631 13.4829 208.255 15.3813 208.144 17.3112C208.145 17.6563 208.129 18.0012 208.094 18.3444H196.962C196.962 20.9459 197.557 22.8067 198.747 23.9266C199.931 25.0415 201.788 25.6064 204.316 25.6064C205.526 25.5974 206.734 25.4881 207.928 25.2794L208.036 26.0598ZM204.533 16.8429V16.2929C204.533 14.5759 204.265 13.3197 203.745 12.6136C203.475 12.2436 203.12 11.9486 202.711 11.7552C202.303 11.5619 201.854 11.4762 201.405 11.5061C200.796 11.4719 200.188 11.5972 199.638 11.8702C199.089 12.1431 198.616 12.5549 198.263 13.067C197.511 14.1791 197.085 15.4894 197.035 16.8429H204.533Z" fill="white"/>
<path d="M223.892 26.0598C222.939 26.6805 221.899 27.1444 220.807 27.4349C219.846 27.7019 218.856 27.8418 217.86 27.8512C215.565 27.9593 213.318 27.1435 211.597 25.5767C209.999 24.0603 209.202 21.9519 209.206 19.2512C209.112 16.8455 209.907 14.4924 211.431 12.6656C212.182 11.8169 213.105 11.1481 214.135 10.7063C215.165 10.2645 216.276 10.0605 217.391 10.1087C218.287 10.0551 219.185 10.1976 220.024 10.5269C220.863 10.8562 221.625 11.3647 222.259 12.0189C223.486 13.4829 224.111 15.3813 224 17.3112C224.001 17.6563 223.984 18.0012 223.95 18.3444H212.818C212.818 20.9459 213.413 22.8067 214.602 23.9266C215.787 25.0415 217.643 25.6064 220.172 25.6064C221.382 25.5971 222.59 25.4877 223.783 25.2794L223.892 26.0598ZM220.388 16.8429V16.2929C220.388 14.5759 220.121 13.3197 219.601 12.6136C219.331 12.2436 218.975 11.9486 218.567 11.7552C218.158 11.5619 217.709 11.4762 217.261 11.5061C216.651 11.4719 216.044 11.5972 215.494 11.8702C214.945 12.1431 214.471 12.5549 214.118 13.067C213.367 14.1791 212.941 15.4894 212.89 16.8429H220.388Z" fill="white"/>
</g>
<defs>
<clipPath id="clip0_6467_11115">
<rect width="224" height="28" fill="white"/>
</clipPath>
</defs>
</svg>
